<svg width="32" height="32" viewBox="0 0 32 32" fill="none" xmlns="http://www.w3.org/2000/svg">
<g clip-path="url(#clip0_13_2)">
<path fill-rule="evenodd" clip-rule="evenodd" d="M2 11.1658V11.2284L15.5245 17.9682L29.0968 11.2054V11.1883L15.5245 4.42596L2 11.1658ZM6.87591 11.1971L15.525 6.88703L24.175 11.1971L15.5245 15.5067L6.87591 11.1971ZM15.5245 20.586L2 13.9471V16.4023L15.5245 23.0569L29.0968 16.3797V13.9241L15.5245 20.586ZM15.5245 25.5659L2 18.926V21.3817L15.5245 28.0368L29.0968 21.3597V18.9045L15.5245 25.5659ZM78.9164 15.988C78.9242 14.9188 78.5527 13.8868 77.8777 13.1029C77.5604 12.7364 77.1782 12.4421 76.7536 12.2371C76.3228 12.0289 75.8554 11.9227 75.3832 11.9257C74.9109 11.9227 74.4436 12.0289 74.0127 12.2371C73.5882 12.4421 73.206 12.7364 72.8886 13.1029C72.2136 13.8869 71.8421 14.9192 71.85 15.9885C71.842 17.0578 72.2136 18.0901 72.8886 18.8741C73.206 19.2404 73.5882 19.5346 74.0127 19.7394C74.4436 19.9478 74.9109 20.0542 75.3832 20.0513C75.8555 20.0542 76.3228 19.9478 76.7536 19.7394C77.1781 19.5345 77.5603 19.2404 77.8777 18.8741C78.5529 18.0901 78.9244 17.0579 78.9164 15.9885V15.988ZM82 15.988C82 16.9889 81.8286 17.9158 81.4864 18.7698C81.1572 19.6028 80.6765 20.3564 80.0727 20.986C79.4732 21.6094 78.77 22.102 77.9636 22.4634C77.1568 22.8252 76.2968 23.0059 75.3832 23.0059C74.4695 23.0059 73.6132 22.8247 72.8136 22.4634C72.0328 22.115 71.3206 21.6099 70.715 20.9748C70.1125 20.3394 69.6321 19.5823 69.3014 18.7468C68.9591 17.8928 68.7877 16.9732 68.7877 15.9885C68.7877 15.019 68.9627 14.1072 69.3123 13.2532C69.651 12.4164 70.1343 11.6565 70.7364 11.014C71.3396 10.3727 72.0522 9.86328 72.835 9.51361C73.6346 9.15175 74.4836 8.97106 75.3832 8.97106C76.2968 8.97106 77.1568 9.15175 77.9636 9.51361C78.77 9.87499 79.4732 10.3676 80.0727 10.9909C80.6727 11.6138 81.1436 12.3566 81.4864 13.2184C81.8286 14.0803 82 15.0033 82 15.9885V15.988ZM67.7173 22.5902C67.453 22.7213 67.1766 22.8219 66.8927 22.8904C66.5803 22.968 66.2606 23.0068 65.94 23.0059C65.4832 23.0059 65.0441 22.9403 64.6227 22.8101C64.2165 22.6877 63.8401 22.471 63.52 22.175C63.2064 21.8826 62.9564 21.5017 62.7705 21.0321C62.585 20.563 62.4923 19.9974 62.4923 19.3354V3.5H65.64V18.7581C65.64 19.3124 65.7436 19.6933 65.9505 19.9009C66.1577 20.109 66.4036 20.2129 66.6891 20.2129C67.0464 20.2129 67.3891 20.0973 67.7173 19.8667V22.5902ZM61.1 9.29424L55.5323 25.1526C55.1186 26.3376 54.5759 27.1916 53.905 27.7151C53.2341 28.238 52.4345 28.5 51.5064 28.5C51.3489 28.4989 51.1916 28.4873 51.0355 28.4652C50.8693 28.4432 50.7048 28.4085 50.5432 28.3614L49.515 25.2682C49.7557 25.3906 50.0069 25.4874 50.265 25.5571C50.5026 25.6234 50.7468 25.6581 50.9923 25.6604C51.4782 25.6604 51.9205 25.5414 52.3205 25.303C52.72 25.064 53.0268 24.6218 53.2409 23.9755L53.6695 22.6367L48.8941 9.29424H52.2559L55.1041 17.8811L57.7809 9.29424H61.1ZM48.1445 7.28562H40.0936V11.5795H48.0382V14.4881H40.0936V22.6597H36.8391V4.21589H48.145V7.28611L48.1445 7.28562Z" fill="#1C2431"/>
</g>
<defs>
<clipPath id="clip0_13_2">
<rect width="32" height="32" fill="white"/>
</clipPath>
</defs>
</svg>
